<svg width="179" height="44" fill="none" xmlns="http://www.w3.org/2000/svg"><path d="M31.697 31.082c0 1.966-.39 3.716-1.167 5.251a11.134 11.134 0 0 1-3.225 3.87c-1.372 1.045-3.02 1.843-4.945 2.396-1.925.553-4.014.83-6.266.83-2.99 0-5.804-.42-8.446-1.26C5.006 41.333 2.458 39.909 0 37.9l3.932-5.098a23.633 23.633 0 0 0 5.866 3.164c2.067.758 4.146 1.137 6.234 1.137 2.785 0 4.863-.562 6.236-1.687 1.372-1.124 2.058-2.544 2.058-4.263 0-1.184-.277-2.145-.83-2.881-.552-.736-1.3-1.35-2.241-1.84-.942-.49-2.017-.878-3.225-1.164a298.722 298.722 0 0 1-3.778-.921 36.372 36.372 0 0 1-4.76-1.41c-1.536-.573-2.887-1.319-4.055-2.24a10.728 10.728 0 0 1-2.826-3.371c-.717-1.329-1.075-2.955-1.075-4.875 0-1.8.328-3.457.983-4.969a11.192 11.192 0 0 1 2.826-3.925C6.573 2.453 8.047 1.585 9.767.952 11.487.318 13.411 0 15.541 0c2.539 0 5.047.254 7.524.76 2.478.508 4.843 1.471 7.096 2.89l-3.133 5.748c-1.884-1.145-3.758-1.944-5.62-2.395a23.38 23.38 0 0 0-5.499-.676c-.983 0-1.915.124-2.795.369a7.208 7.208 0 0 0-2.334 1.106 5.535 5.535 0 0 0-1.628 1.873c-.41.759-.614 1.65-.614 2.672 0 1.024.266 1.884.799 2.581.532.697 1.238 1.28 2.119 1.75.88.472 1.883.86 3.01 1.167 1.126.307 2.303.584 3.532.83 2.006.452 3.849.983 5.528 1.597 1.678.615 3.122 1.403 4.33 2.365a10.261 10.261 0 0 1 2.826 3.471c.676 1.352 1.015 3.008 1.015 4.974ZM79.39 15.172c-1.572-1.925-3.95-2.887-7.134-2.887-.531 0-1.112.032-1.745.093-.633.063-1.347.219-2.143.465-.797.25-1.694.6-2.694 1.055-1 .455-2.113 1.055-3.338 1.799l-.614-3.043h-5.897v21.262c-3.163 2.206-5.874 3.309-8.135 3.309-1.316 0-2.448-.41-3.395-1.23-.946-.818-1.42-2.25-1.42-4.3V12.654h-6.511v19.595c0 3.4.839 6.113 2.519 8.139 1.678 2.027 4.177 3.04 7.494 3.04 1.023 0 2.262-.194 3.716-.582 1.454-.39 3.369-1.3 5.744-2.734l.609 2.949h5.902V21.667c1.552-.976 3.022-1.73 4.41-2.26 1.393-.53 2.642-.796 3.748-.796 1.35 0 2.477.398 3.378 1.194.9.797 1.352 2.239 1.352 4.32V43.06h6.51V23.156c.001-3.397-.784-6.059-2.355-7.983ZM93.922 3.44v39.62h-2.949V3.44H77.705V.737h29.362V3.44H93.922ZM128.692 32.434c0 3.44-1.089 6.132-3.265 8.077-2.177 1.945-5.074 2.917-8.686 2.917-1.767 0-3.378-.256-4.835-.768-1.458-.511-2.711-1.248-3.757-2.21a9.996 9.996 0 0 1-2.433-3.44c-.575-1.33-.862-2.836-.862-4.515V23.28c0-1.637.317-3.123.954-4.454a10.04 10.04 0 0 1 2.586-3.378c1.089-.922 2.352-1.637 3.788-2.15 1.437-.511 2.976-.768 4.621-.768 1.682 0 3.253.257 4.713.768 1.458.513 2.721 1.229 3.787 2.15a9.542 9.542 0 0 1 2.494 3.378c.595 1.331.894 2.817.894 4.454v9.153h.001Zm-2.765-8.333c0-1.642-.276-3.037-.829-4.187-.552-1.148-1.259-2.083-2.119-2.802a8.25 8.25 0 0 0-2.921-1.57 11.106 11.106 0 0 0-3.225-.493c-1.105 0-2.211.165-3.317.492a8.23 8.23 0 0 0-2.949 1.571c-.86.719-1.566 1.653-2.118 2.802-.553 1.15-.829 2.546-.829 4.187v7.696c0 1.683.255 3.1.768 4.248.512 1.15 1.186 2.084 2.026 2.802a7.874 7.874 0 0 0 2.919 1.57c1.105.33 2.272.493 3.5.493 1.23 0 2.386-.173 3.471-.522a8.067 8.067 0 0 0 2.89-1.633c.839-.739 1.505-1.682 1.997-2.832.49-1.15.736-2.526.736-4.126v-7.696ZM155.71 43.06l-.482-4.177a64.984 64.984 0 0 1-3.716 2.15 36.533 36.533 0 0 1-2.948 1.413c-.882.368-1.69.623-2.427.767-.737.143-1.455.215-2.15.215-3.113 0-5.508-.849-7.187-2.548-1.679-1.7-2.519-4.29-2.519-7.772v-20.21h2.764V32.39c0 2.984.635 5.12 1.905 6.407 1.269 1.287 3.029 1.93 5.282 1.93 1.474 0 3.173-.439 5.098-1.318 1.925-.878 3.89-2.033 5.897-3.463V12.899h2.764V43.06h-2.281ZM179 15.725c-2.744.287-5.017.882-6.819 1.781-1.802.902-3.214 1.7-4.238 2.396V43.06h-2.764V12.9h2.334l.43 4.485h.061a20.712 20.712 0 0 1 2.181-1.628 23.229 23.229 0 0 1 2.733-1.536c.983-.47 1.996-.85 3.041-1.137a16.88 16.88 0 0 1 3.04-.553v3.195H179Z" fill="#fff"/></svg>